<?xml version="1.0" encoding="UTF-8" standalone="no"?>
<!DOCTYPE svg PUBLIC "-//W3C//DTD SVG 1.1//EN"
 "http://www.w3.org/Graphics/SVG/1.1/DTD/svg11.dtd">
<!-- Generated by graphviz version 2.40.1 (20161225.0304)
 -->
<!-- Title: inheritance6e956ace96 Pages: 1 -->
<svg width="523pt" height="618pt"
 viewBox="0.00 0.00 523.00 618.00" xmlns="http://www.w3.org/2000/svg" xmlns:xlink="http://www.w3.org/1999/xlink">
<g id="graph0" class="graph" transform="scale(1 1) rotate(0) translate(4 614)">
<title>inheritance6e956ace96</title>
<polygon fill="#ffffff" stroke="transparent" points="-4,4 -4,-614 519,-614 519,4 -4,4"/>
<!-- EmissionLinesSpectrum1DModel -->
<g id="node1" class="node">
<title>EmissionLinesSpectrum1DModel</title>
<g id="a_node1"><a xlink:href="../../api/misfit.EmissionLinesSpectrum1DModel.html#misfit.EmissionLinesSpectrum1DModel" xlink:title="Define a spectrum made of multiple linesets set of emission lines and profiles for 1D spectra of a single lineset " target="_top">
<polygon fill="none" stroke="#000000" stroke-width=".5" points="127,-19 0,-19 0,0 127,0 127,-19"/>
<text text-anchor="middle" x="63.5" y="-7" font-family="Vera Sans, DejaVu Sans, Liberation Sans, Arial, Helvetica, sans" font-size="10.00" fill="#000000">EmissionLinesSpectrum1DModel</text>
</a>
</g>
</g>
<!-- FitEmissionLines2D -->
<g id="node2" class="node">
<title>FitEmissionLines2D</title>
<g id="a_node2"><a xlink:href="../../api/misfit.FitEmissionLines2D.html#misfit.FitEmissionLines2D" xlink:title="Fit the kinematics of a 2D spectrum, using a set of lines." target="_top">
<polygon fill="none" stroke="#000000" stroke-width=".5" points="105,-56 22,-56 22,-37 105,-37 105,-56"/>
<text text-anchor="middle" x="63.5" y="-44" font-family="Vera Sans, DejaVu Sans, Liberation Sans, Arial, Helvetica, sans" font-size="10.00" fill="#000000">FitEmissionLines2D</text>
</a>
</g>
</g>
<!-- Galaxy -->
<g id="node3" class="node">
<title>Galaxy</title>
<g id="a_node3"><a xlink:href="../../api/misfit.Galaxy.html#misfit.Galaxy" xlink:title="Galaxy class to contain information about spectra for MISFIT." target="_top">
<polygon fill="none" stroke="#000000" stroke-width=".5" points="249,-93 195,-93 195,-74 249,-74 249,-93"/>
<text text-anchor="middle" x="222" y="-81" font-family="Vera Sans, DejaVu Sans, Liberation Sans, Arial, Helvetica, sans" font-size="10.00" fill="#000000">Galaxy</text>
</a>
</g>
</g>
<!-- GalaxyBasic -->
<g id="node4" class="node">
<title>GalaxyBasic</title>
<g id="a_node4"><a xlink:href="../../api/misfit.GalaxyBasic.html#misfit.GalaxyBasic" xlink:title="Basic galaxy class." target="_top">
<polygon fill="none" stroke="#000000" stroke-width=".5" points="92.5,-93 34.5,-93 34.5,-74 92.5,-74 92.5,-93"/>
<text text-anchor="middle" x="63.5" y="-81" font-family="Vera Sans, DejaVu Sans, Liberation Sans, Arial, Helvetica, sans" font-size="10.00" fill="#000000">GalaxyBasic</text>
</a>
</g>
</g>
<!-- GalaxyBasic&#45;&gt;Galaxy -->
<g id="edge1" class="edge">
<title>GalaxyBasic&#45;&gt;Galaxy</title>
<path fill="none" stroke="#000000" stroke-width=".5" d="M92.5713,-83.5C120.0831,-83.5 161.3006,-83.5 189.7972,-83.5"/>
<polygon fill="#000000" stroke="#000000" stroke-width=".5" points="189.9639,-85.2501 194.9639,-83.5 189.9638,-81.7501 189.9639,-85.2501"/>
</g>
<!-- Imager -->
<g id="node5" class="node">
<title>Imager</title>
<g id="a_node5"><a xlink:href="../../api/misfit.Imager.html#misfit.Imager" xlink:title="Class to describe the spectrograph for MISFIT, including slit properties" target="_top">
<polygon fill="none" stroke="#000000" stroke-width=".5" points="249,-167 195,-167 195,-148 249,-148 249,-167"/>
<text text-anchor="middle" x="222" y="-155" font-family="Vera Sans, DejaVu Sans, Liberation Sans, Arial, Helvetica, sans" font-size="10.00" fill="#000000">Imager</text>
</a>
</g>
</g>
<!-- Instrument -->
<g id="node6" class="node">
<title>Instrument</title>
<g id="a_node6"><a xlink:href="../../api/misfit.Instrument.html#misfit.Instrument" xlink:title="Class to describe the instrument for MISFIT" target="_top">
<polygon fill="none" stroke="#000000" stroke-width=".5" points="90.5,-148 36.5,-148 36.5,-129 90.5,-129 90.5,-148"/>
<text text-anchor="middle" x="63.5" y="-136" font-family="Vera Sans, DejaVu Sans, Liberation Sans, Arial, Helvetica, sans" font-size="10.00" fill="#000000">Instrument</text>
</a>
</g>
</g>
<!-- Instrument&#45;&gt;Imager -->
<g id="edge2" class="edge">
<title>Instrument&#45;&gt;Imager</title>
<path fill="none" stroke="#000000" stroke-width=".5" d="M90.7471,-141.7662C118.1609,-145.0524 160.4383,-150.1204 189.5647,-153.6119"/>
<polygon fill="#000000" stroke="#000000" stroke-width=".5" points="189.6709,-155.387 194.8437,-154.2447 190.0875,-151.9119 189.6709,-155.387"/>
</g>
<!-- Spectrograph -->
<g id="node25" class="node">
<title>Spectrograph</title>
<g id="a_node25"><a xlink:href="../../api/misfit.Spectrograph.html#misfit.Spectrograph" xlink:title="Class to describe the spectrograph for MISFIT, including slit properties" target="_top">
<polygon fill="none" stroke="#000000" stroke-width=".5" points="253,-130 191,-130 191,-111 253,-111 253,-130"/>
<text text-anchor="middle" x="222" y="-118" font-family="Vera Sans, DejaVu Sans, Liberation Sans, Arial, Helvetica, sans" font-size="10.00" fill="#000000">Spectrograph</text>
</a>
</g>
</g>
<!-- Instrument&#45;&gt;Spectrograph -->
<g id="edge12" class="edge">
<title>Instrument&#45;&gt;Spectrograph</title>
<path fill="none" stroke="#000000" stroke-width=".5" d="M90.7471,-135.4057C116.911,-132.4344 156.6141,-127.9255 185.5015,-124.6449"/>
<polygon fill="#000000" stroke="#000000" stroke-width=".5" points="185.9933,-126.3504 190.7639,-124.0473 185.5983,-122.8728 185.9933,-126.3504"/>
</g>
<!-- IntensityProfile -->
<g id="node7" class="node">
<title>IntensityProfile</title>
<g id="a_node7"><a xlink:href="../../api/misfit.IntensityProfile.html#misfit.IntensityProfile" xlink:title="IntensityProfile" target="_top">
<polygon fill="none" stroke="#000000" stroke-width=".5" points="96.5,-222 30.5,-222 30.5,-203 96.5,-203 96.5,-222"/>
<text text-anchor="middle" x="63.5" y="-210" font-family="Vera Sans, DejaVu Sans, Liberation Sans, Arial, Helvetica, sans" font-size="10.00" fill="#000000">IntensityProfile</text>
</a>
</g>
</g>
<!-- IntensityProfileFiducial -->
<g id="node8" class="node">
<title>IntensityProfileFiducial</title>
<g id="a_node8"><a xlink:href="../../api/misfit.IntensityProfileFiducial.html#misfit.IntensityProfileFiducial" xlink:title="IntensityProfileFiducial" target="_top">
<polygon fill="none" stroke="#000000" stroke-width=".5" points="268,-241 176,-241 176,-222 268,-222 268,-241"/>
<text text-anchor="middle" x="222" y="-229" font-family="Vera Sans, DejaVu Sans, Liberation Sans, Arial, Helvetica, sans" font-size="10.00" fill="#000000">IntensityProfileFiducial</text>
</a>
</g>
</g>
<!-- IntensityProfile&#45;&gt;IntensityProfileFiducial -->
<g id="edge3" class="edge">
<title>IntensityProfile&#45;&gt;IntensityProfileFiducial</title>
<path fill="none" stroke="#000000" stroke-width=".5" d="M96.7268,-216.483C118.168,-219.0533 146.4873,-222.448 170.7755,-225.3595"/>
<polygon fill="#000000" stroke="#000000" stroke-width=".5" points="170.7204,-227.1154 175.8932,-225.973 171.1371,-223.6402 170.7204,-227.1154"/>
</g>
<!-- IntensityProfileSersicExpScale -->
<g id="node9" class="node">
<title>IntensityProfileSersicExpScale</title>
<g id="a_node9"><a xlink:href="../../api/misfit.IntensityProfileSersicExpScale.html#misfit.IntensityProfileSersicExpScale" xlink:title="IntensityProfileSersicExpScale" target="_top">
<polygon fill="none" stroke="#000000" stroke-width=".5" points="281,-204 163,-204 163,-185 281,-185 281,-204"/>
<text text-anchor="middle" x="222" y="-192" font-family="Vera Sans, DejaVu Sans, Liberation Sans, Arial, Helvetica, sans" font-size="10.00" fill="#000000">IntensityProfileSersicExpScale</text>
</a>
</g>
</g>
<!-- IntensityProfile&#45;&gt;IntensityProfileSersicExpScale -->
<g id="edge4" class="edge">
<title>IntensityProfile&#45;&gt;IntensityProfileSersicExpScale</title>
<path fill="none" stroke="#000000" stroke-width=".5" d="M96.7268,-208.7266C114.459,-206.7129 136.8954,-204.1649 157.8655,-201.7834"/>
<polygon fill="#000000" stroke="#000000" stroke-width=".5" points="158.1069,-203.5173 162.8775,-201.2142 157.7119,-200.0397 158.1069,-203.5173"/>
</g>
<!-- KinModel2D -->
<g id="node10" class="node">
<title>KinModel2D</title>
<g id="a_node10"><a xlink:href="../../api/misfit.KinModel2D.html#misfit.KinModel2D" xlink:title="Class to handle kinematic fitting models." target="_top">
<polygon fill="none" stroke="#000000" stroke-width=".5" points="92,-259 35,-259 35,-240 92,-240 92,-259"/>
<text text-anchor="middle" x="63.5" y="-247" font-family="Vera Sans, DejaVu Sans, Liberation Sans, Arial, Helvetica, sans" font-size="10.00" fill="#000000">KinModel2D</text>
</a>
</g>
</g>
<!-- KinModel2DOptions -->
<g id="node11" class="node">
<title>KinModel2DOptions</title>
<g id="a_node11"><a xlink:href="../../api/misfit.KinModel2DOptions.html#misfit.KinModel2DOptions" xlink:title="Class to hold model options for KinModel2D" target="_top">
<polygon fill="none" stroke="#000000" stroke-width=".5" points="105,-296 22,-296 22,-277 105,-277 105,-296"/>
<text text-anchor="middle" x="63.5" y="-284" font-family="Vera Sans, DejaVu Sans, Liberation Sans, Arial, Helvetica, sans" font-size="10.00" fill="#000000">KinModel2DOptions</text>
</a>
</g>
</g>
<!-- KinProfile -->
<g id="node12" class="node">
<title>KinProfile</title>
<g id="a_node12"><a xlink:href="../../api/misfit.KinProfile.html#misfit.KinProfile" xlink:title="KinProfile" target="_top">
<polygon fill="none" stroke="#000000" stroke-width=".5" points="90.5,-333 36.5,-333 36.5,-314 90.5,-314 90.5,-333"/>
<text text-anchor="middle" x="63.5" y="-321" font-family="Vera Sans, DejaVu Sans, Liberation Sans, Arial, Helvetica, sans" font-size="10.00" fill="#000000">KinProfile</text>
</a>
</g>
</g>
<!-- KinProfileFiducial -->
<g id="node13" class="node">
<title>KinProfileFiducial</title>
<g id="a_node13"><a xlink:href="../../api/misfit.KinProfileFiducial.html#misfit.KinProfileFiducial" xlink:title="KinProfileFiducial" target="_top">
<polygon fill="none" stroke="#000000" stroke-width=".5" points="259,-333 185,-333 185,-314 259,-314 259,-333"/>
<text text-anchor="middle" x="222" y="-321" font-family="Vera Sans, DejaVu Sans, Liberation Sans, Arial, Helvetica, sans" font-size="10.00" fill="#000000">KinProfileFiducial</text>
</a>
</g>
</g>
<!-- KinProfile&#45;&gt;KinProfileFiducial -->
<g id="edge5" class="edge">
<title>KinProfile&#45;&gt;KinProfileFiducial</title>
<path fill="none" stroke="#000000" stroke-width=".5" d="M90.7471,-323.5C115.1612,-323.5 151.364,-323.5 179.5678,-323.5"/>
<polygon fill="#000000" stroke="#000000" stroke-width=".5" points="179.7363,-325.2501 184.7363,-323.5 179.7363,-321.7501 179.7363,-325.2501"/>
</g>
<!-- MCMC2DOptions -->
<g id="node14" class="node">
<title>MCMC2DOptions</title>
<g id="a_node14"><a xlink:href="../../api/misfit.MCMC2DOptions.html#misfit.MCMC2DOptions" xlink:title="Class to hold options for 2D MCMC fitting, including output filenames." target="_top">
<polygon fill="none" stroke="#000000" stroke-width=".5" points="101,-370 26,-370 26,-351 101,-351 101,-370"/>
<text text-anchor="middle" x="63.5" y="-358" font-family="Vera Sans, DejaVu Sans, Liberation Sans, Arial, Helvetica, sans" font-size="10.00" fill="#000000">MCMC2DOptions</text>
</a>
</g>
</g>
<!-- MCMCResults -->
<g id="node15" class="node">
<title>MCMCResults</title>
<g id="a_node15"><a xlink:href="../../api/misfit.MCMCResults.html#misfit.MCMCResults" xlink:title="Class to hold results from 2D MCMC fitting:" target="_top">
<polygon fill="none" stroke="#000000" stroke-width=".5" points="96,-407 31,-407 31,-388 96,-388 96,-407"/>
<text text-anchor="middle" x="63.5" y="-395" font-family="Vera Sans, DejaVu Sans, Liberation Sans, Arial, Helvetica, sans" font-size="10.00" fill="#000000">MCMCResults</text>
</a>
</g>
</g>
<!-- ObsSpectrum -->
<g id="node16" class="node">
<title>ObsSpectrum</title>
<g id="a_node16"><a xlink:href="../../api/misfit.ObsSpectrum.html#misfit.ObsSpectrum" xlink:title="Class to hold observed spectra." target="_top">
<polygon fill="none" stroke="#000000" stroke-width=".5" points="253,-444 191,-444 191,-425 253,-425 253,-444"/>
<text text-anchor="middle" x="222" y="-432" font-family="Vera Sans, DejaVu Sans, Liberation Sans, Arial, Helvetica, sans" font-size="10.00" fill="#000000">ObsSpectrum</text>
</a>
</g>
</g>
<!-- ObsSpectrum1D -->
<g id="node18" class="node">
<title>ObsSpectrum1D</title>
<g id="a_node18"><a xlink:href="../../api/misfit.ObsSpectrum1D.html#misfit.ObsSpectrum1D" xlink:title="Class to hold 1D spectra." target="_top">
<polygon fill="none" stroke="#000000" stroke-width=".5" points="398,-462 326,-462 326,-443 398,-443 398,-462"/>
<text text-anchor="middle" x="362" y="-450" font-family="Vera Sans, DejaVu Sans, Liberation Sans, Arial, Helvetica, sans" font-size="10.00" fill="#000000">ObsSpectrum1D</text>
</a>
</g>
</g>
<!-- ObsSpectrum&#45;&gt;ObsSpectrum1D -->
<g id="edge7" class="edge">
<title>ObsSpectrum&#45;&gt;ObsSpectrum1D</title>
<path fill="none" stroke="#000000" stroke-width=".5" d="M253.0705,-438.4948C272.9829,-441.0549 299.0576,-444.4074 320.7034,-447.1904"/>
<polygon fill="#000000" stroke="#000000" stroke-width=".5" points="320.6362,-448.9461 325.8185,-447.8481 321.0825,-445.4747 320.6362,-448.9461"/>
</g>
<!-- ObsSpectrum2DBasic -->
<g id="node20" class="node">
<title>ObsSpectrum2DBasic</title>
<g id="a_node20"><a xlink:href="../../api/misfit.ObsSpectrum2DBasic.html#misfit.ObsSpectrum2DBasic" xlink:title="Class to hold basic 2D spectra." target="_top">
<polygon fill="none" stroke="#000000" stroke-width=".5" points="407,-425 317,-425 317,-406 407,-406 407,-425"/>
<text text-anchor="middle" x="362" y="-413" font-family="Vera Sans, DejaVu Sans, Liberation Sans, Arial, Helvetica, sans" font-size="10.00" fill="#000000">ObsSpectrum2DBasic</text>
</a>
</g>
</g>
<!-- ObsSpectrum&#45;&gt;ObsSpectrum2DBasic -->
<g id="edge9" class="edge">
<title>ObsSpectrum&#45;&gt;ObsSpectrum2DBasic</title>
<path fill="none" stroke="#000000" stroke-width=".5" d="M253.0705,-430.2833C270.3006,-427.9449 292.1446,-424.9804 311.7408,-422.3209"/>
<polygon fill="#000000" stroke="#000000" stroke-width=".5" points="312.2163,-424.0225 316.9355,-421.6159 311.7456,-420.5543 312.2163,-424.0225"/>
</g>
<!-- Spectrum -->
<g id="node17" class="node">
<title>Spectrum</title>
<g id="a_node17"><a xlink:href="../../api/misfit.Spectrum.html#misfit.Spectrum" xlink:title="Basic Spectrum class" target="_top">
<polygon fill="none" stroke="#000000" stroke-width=".5" points="90.5,-444 36.5,-444 36.5,-425 90.5,-425 90.5,-444"/>
<text text-anchor="middle" x="63.5" y="-432" font-family="Vera Sans, DejaVu Sans, Liberation Sans, Arial, Helvetica, sans" font-size="10.00" fill="#000000">Spectrum</text>
</a>
</g>
</g>
<!-- Spectrum&#45;&gt;ObsSpectrum -->
<g id="edge6" class="edge">
<title>Spectrum&#45;&gt;ObsSpectrum</title>
<path fill="none" stroke="#000000" stroke-width=".5" d="M90.7471,-434.5C116.911,-434.5 156.6141,-434.5 185.5015,-434.5"/>
<polygon fill="#000000" stroke="#000000" stroke-width=".5" points="185.7639,-436.2501 190.7639,-434.5 185.7638,-432.7501 185.7639,-436.2501"/>
</g>
<!-- ObsSpectrum2D -->
<g id="node19" class="node">
<title>ObsSpectrum2D</title>
<g id="a_node19"><a xlink:href="../../api/misfit.ObsSpectrum2D.html#misfit.ObsSpectrum2D" xlink:title="Class to hold 2D spectra." target="_top">
<polygon fill="none" stroke="#000000" stroke-width=".5" points="515,-425 443,-425 443,-406 515,-406 515,-425"/>
<text text-anchor="middle" x="479" y="-413" font-family="Vera Sans, DejaVu Sans, Liberation Sans, Arial, Helvetica, sans" font-size="10.00" fill="#000000">ObsSpectrum2D</text>
</a>
</g>
</g>
<!-- ObsSpectrum2DBasic&#45;&gt;ObsSpectrum2D -->
<g id="edge8" class="edge">
<title>ObsSpectrum2DBasic&#45;&gt;ObsSpectrum2D</title>
<path fill="none" stroke="#000000" stroke-width=".5" d="M407.2353,-415.5C417.3109,-415.5 427.9408,-415.5 437.842,-415.5"/>
<polygon fill="#000000" stroke="#000000" stroke-width=".5" points="437.9465,-417.2501 442.9464,-415.5 437.9464,-413.7501 437.9465,-417.2501"/>
</g>
<!-- PSFBase -->
<g id="node21" class="node">
<title>PSFBase</title>
<g id="a_node21"><a xlink:href="../../api/misfit.PSFBase.html#misfit.PSFBase" xlink:title="Basic PSF class" target="_top">
<polygon fill="none" stroke="#000000" stroke-width=".5" points="90.5,-499 36.5,-499 36.5,-480 90.5,-480 90.5,-499"/>
<text text-anchor="middle" x="63.5" y="-487" font-family="Vera Sans, DejaVu Sans, Liberation Sans, Arial, Helvetica, sans" font-size="10.00" fill="#000000">PSFBase</text>
</a>
</g>
</g>
<!-- PSFGaussian -->
<g id="node22" class="node">
<title>PSFGaussian</title>
<g id="a_node22"><a xlink:href="../../api/misfit.PSFGaussian.html#misfit.PSFGaussian" xlink:title="PSFGaussian" target="_top">
<polygon fill="none" stroke="#000000" stroke-width=".5" points="253.5,-518 190.5,-518 190.5,-499 253.5,-499 253.5,-518"/>
<text text-anchor="middle" x="222" y="-506" font-family="Vera Sans, DejaVu Sans, Liberation Sans, Arial, Helvetica, sans" font-size="10.00" fill="#000000">PSFGaussian</text>
</a>
</g>
</g>
<!-- PSFBase&#45;&gt;PSFGaussian -->
<g id="edge10" class="edge">
<title>PSFBase&#45;&gt;PSFGaussian</title>
<path fill="none" stroke="#000000" stroke-width=".5" d="M90.7471,-492.7662C116.8277,-495.8926 156.3613,-500.6316 185.2252,-504.0917"/>
<polygon fill="#000000" stroke="#000000" stroke-width=".5" points="185.3121,-505.8645 190.4849,-504.7222 185.7287,-502.3894 185.3121,-505.8645"/>
</g>
<!-- PSFMoffat -->
<g id="node23" class="node">
<title>PSFMoffat</title>
<g id="a_node23"><a xlink:href="../../api/misfit.PSFMoffat.html#misfit.PSFMoffat" xlink:title="PSFMoffat" target="_top">
<polygon fill="none" stroke="#000000" stroke-width=".5" points="249,-481 195,-481 195,-462 249,-462 249,-481"/>
<text text-anchor="middle" x="222" y="-469" font-family="Vera Sans, DejaVu Sans, Liberation Sans, Arial, Helvetica, sans" font-size="10.00" fill="#000000">PSFMoffat</text>
</a>
</g>
</g>
<!-- PSFBase&#45;&gt;PSFMoffat -->
<g id="edge11" class="edge">
<title>PSFBase&#45;&gt;PSFMoffat</title>
<path fill="none" stroke="#000000" stroke-width=".5" d="M90.7471,-486.4057C118.1609,-483.2925 160.4383,-478.4912 189.5647,-475.1835"/>
<polygon fill="#000000" stroke="#000000" stroke-width=".5" points="190.0731,-476.8871 194.8437,-474.584 189.6781,-473.4095 190.0731,-476.8871"/>
</g>
<!-- Pstamp -->
<g id="node24" class="node">
<title>Pstamp</title>
<g id="a_node24"><a xlink:href="../../api/misfit.Pstamp.html#misfit.Pstamp" xlink:title="Basic Pstamp class" target="_top">
<polygon fill="none" stroke="#000000" stroke-width=".5" points="90.5,-536 36.5,-536 36.5,-517 90.5,-517 90.5,-536"/>
<text text-anchor="middle" x="63.5" y="-524" font-family="Vera Sans, DejaVu Sans, Liberation Sans, Arial, Helvetica, sans" font-size="10.00" fill="#000000">Pstamp</text>
</a>
</g>
</g>
<!-- Theta2DSettings -->
<g id="node26" class="node">
<title>Theta2DSettings</title>
<g id="a_node26"><a xlink:href="../../api/misfit.Theta2DSettings.html#misfit.Theta2DSettings" xlink:title="Class to initialize the settings needed for the fitting parameters, " target="_top">
<polygon fill="none" stroke="#000000" stroke-width=".5" points="99.5,-573 27.5,-573 27.5,-554 99.5,-554 99.5,-573"/>
<text text-anchor="middle" x="63.5" y="-561" font-family="Vera Sans, DejaVu Sans, Liberation Sans, Arial, Helvetica, sans" font-size="10.00" fill="#000000">Theta2DSettings</text>
</a>
</g>
</g>
<!-- Theta2DSettingsFiducial -->
<g id="node27" class="node">
<title>Theta2DSettingsFiducial</title>
<g id="a_node27"><a xlink:href="../../api/misfit.Theta2DSettingsFiducial.html#misfit.Theta2DSettingsFiducial" xlink:title="Class to initialize the settings needed for the fitting parameters, " target="_top">
<polygon fill="none" stroke="#000000" stroke-width=".5" points="271,-573 173,-573 173,-554 271,-554 271,-573"/>
<text text-anchor="middle" x="222" y="-561" font-family="Vera Sans, DejaVu Sans, Liberation Sans, Arial, Helvetica, sans" font-size="10.00" fill="#000000">Theta2DSettingsFiducial</text>
</a>
</g>
</g>
<!-- Theta2DSettings&#45;&gt;Theta2DSettingsFiducial -->
<g id="edge13" class="edge">
<title>Theta2DSettings&#45;&gt;Theta2DSettingsFiducial</title>
<path fill="none" stroke="#000000" stroke-width=".5" d="M99.8631,-563.5C120.0009,-563.5 145.4255,-563.5 167.8573,-563.5"/>
<polygon fill="#000000" stroke="#000000" stroke-width=".5" points="167.892,-565.2501 172.8919,-563.5 167.8919,-561.7501 167.892,-565.2501"/>
</g>
<!-- ThetaPriorFlat -->
<g id="node28" class="node">
<title>ThetaPriorFlat</title>
<g id="a_node28"><a xlink:href="../../api/misfit.ThetaPriorFlat.html#misfit.ThetaPriorFlat" xlink:title="ThetaPriorFlat" target="_top">
<polygon fill="none" stroke="#000000" stroke-width=".5" points="95.5,-610 31.5,-610 31.5,-591 95.5,-591 95.5,-610"/>
<text text-anchor="middle" x="63.5" y="-598" font-family="Vera Sans, DejaVu Sans, Liberation Sans, Arial, Helvetica, sans" font-size="10.00" fill="#000000">ThetaPriorFlat</text>
</a>
</g>
</g>
</g>
</svg>
